<?xml version="1.0" encoding="UTF-8"?>
<svg width="30" height="30" version="1.1" viewBox="0 0 700 700" xmlns="http://www.w3.org/2000/svg">
 <path d="m582.14 272.62c-18.141-46.59-50.109-86.504-91.609-114.39-41.5-27.879-90.539-42.383-140.53-41.562-49.988-0.82031-99.027 13.684-140.53 41.562-41.5 27.883-73.469 67.797-91.609 114.39-1.5938 4.793-1.5938 9.9727 0 14.766 18.141 46.59 50.109 86.504 91.609 114.39 41.5 27.879 90.539 42.383 140.53 41.562 49.988 0.82031 99.027-13.684 140.53-41.562 41.5-27.883 73.469-67.797 91.609-114.39 1.5938-4.793 1.5938-9.9727 0-14.766zm-232.14 124.05c-38.961 1.2969-77.414-9.1289-110.38-29.93s-58.934-51.016-74.539-86.738c15.605-35.723 41.57-65.938 74.539-86.738s71.422-31.227 110.38-29.93c38.961-1.293 77.414 9.1328 110.38 29.93s58.941 51.008 74.551 86.727c-15.605 35.723-41.574 65.941-74.547 86.742-32.969 20.805-71.426 31.23-110.39 29.938zm0-186.67c-18.566 0-36.371 7.375-49.496 20.504-13.129 13.125-20.504 30.93-20.504 49.496s7.375 36.371 20.504 49.496c13.125 13.129 30.93 20.504 49.496 20.504s36.371-7.375 49.496-20.504c13.129-13.125 20.504-30.93 20.504-49.496-0.019531-18.559-7.4023-36.352-20.523-49.477-13.125-13.121-30.918-20.504-49.477-20.523zm0 93.332c-6.1875 0-12.125-2.457-16.5-6.832s-6.832-10.312-6.832-16.5 2.457-12.125 6.832-16.5 10.312-6.832 16.5-6.832 12.125 2.457 16.5 6.832 6.832 10.312 6.832 16.5c-0.007812 6.1875-2.4688 12.117-6.8398 16.492-4.375 4.3711-10.305 6.832-16.492 6.8398z"/>
</svg>
